# xmcd
# 
# Track frame offsets:
#     150
#     19102
#     37497
#     56450
# 
# Disc length: 994
# 
# Revision: 0
# Processed by: cddbd v1.5.2PL0 Copyright (c) Steve Scherf et al.
# Submitted via: BonkEnc v1.0.8
# 
DISCID=3103e004
DTITLE=平野綾 - NEOPHILIA
DYEAR=2077
DGENRE=Blues
TTITLE0=NEOPHILIA
TTITLE1=forget me nots...
TTITLE2=NEOPHILIA (off vocal)
TTITLE3=forget me nots... (off vocal)
EXTD=
EXTT0=
EXTT1=
EXTT2=
EXTT3=
PLAYORDER=
